<?xml version="1.0" encoding="UTF-8" standalone="no"?>
<!DOCTYPE svg  PUBLIC '-//W3C//DTD SVG 1.1//EN'  'http://www.w3.org/Graphics/SVG/1.1/DTD/svg11.dtd'>
<svg id="buildings" style="enable-background:new 0 0 530.95 472.35" xmlns="http://www.w3.org/2000/svg" xml:space="preserve" height="472.35px" viewBox="0 0 530.95 472.35" width="530.95px" version="1.1" y="0px" x="0px" xmlns:xlink="http://www.w3.org/1999/xlink">
			<path fill-rule="evenodd" clip-rule="evenodd" d="m397.6 172.65c-1.399 3.6-2.35 8.633-2.85 15.1-0.233 3.233-0.333 6.1-0.3 8.6l-19.5 10.5 15 43.5-31.5 51 45 1.5 39-90 88.5-18-81 27-37.5 96-61.5-1.5-67.5 27-4.5 43.5 1.35 2.5c1.334 2.067 3.017 4.117 5.05 6.15 6.5 6.5 15.367 11.616 26.601 15.35 10.434 3.467 20.184 10.217 29.25 20.25 2.366 2.634 5.7 6.434 10 11.4 3.7 4 7.116 6.95 10.25 8.85 10 6 22.5 13 37.5 21-10.233-3.733-20.917-7.35-32.05-10.85-22.267-7-35.584-9.884-39.95-8.65-4.367 1.267-5.684 4.9-3.95 10.9 0.9 3 2.217 5.866 3.95 8.6-5.233-4.5-10.917-8.866-17.05-13.1-12.267-8.5-20.584-12.134-24.95-10.9-4.367 1.267-8.184 5.65-11.45 13.15-1.6 3.733-2.783 7.35-3.55 10.85-3.233-4.733-7.417-9.35-12.55-13.85-10.267-9-20.083-12.884-29.45-11.65-9.367 1.267-19.684 4.9-30.95 10.9-5.6 3-10.283 5.866-14.05 8.6 1.5-3.233 2.5-6.416 3-9.55 1-6.267-1-9.083-6-8.45-5 0.634-13.5 2.317-25.5 5.051l-16.5 3.949c8.267-6.233 16.833-13.666 25.7-22.3 17.733-17.267 28.167-31.833 31.3-43.7 2.966-11.166 2.783-40.449-0.55-87.85-3.7-8.8-7.333-16.517-10.9-23.15-5.6-10.399-10.233-16.517-13.9-18.35-4.467-2.233-12.133-2.35-23-0.35l-15 3.649-14-21.3 18.65 15.3 14.5-3.5c10.433-2 17.6-2.166 21.5-0.5 4.7 2.033 11.2 6.717 19.5 14.05-1.033-11.899-2.15-23.916-3.35-36.05l-1.5-14.65-96.9 7.7-45-75 37.5-10.5-82.5-36 118.45 34.5-47.95 22.5 31.5 48 90.8-11.5 13.45 34.95 8.65-26.65-40.95-85.3-63-30-31.35-22.05-6.7 15.35 59.35 36.65-73.35-34.65 23.35-26 43.1 15.55 24.8-26.05 4.75-50.15 1.65 43.4 39.9-42.05 67.5 82.5-12 54 1.65-51.85-57.15-65.15-58.5 69 54 24 40.5 91.5-13.55 78.65 12.05 108.85c5.767-8.733 11.583-17.666 17.45-26.8 11.733-18.267 17.917-28.333 18.55-30.2 0.633-1.866 12.066-7.683 34.3-17.449 11.134-4.867 22.2-9.551 33.2-14.051l39-58.5-30-54-15-57 24 54 25.5-3-9-67.5-61.5-33-1.5-70.5 12 66 60.95 32.45 9.8 52.35 36.9-34.35 20.65 21.35-12.65 38 6.65-36-14-15.35c-4.233 4.133-8.6 8.617-13.1 13.45-9 9.67-14.18 16.3-15.55 19.9z" fill="#5D5646"/>
			<polygon fill-rule="evenodd" points="86.45 66.55 120.45 79.3 133.2 89.55" clip-rule="evenodd" fill="#7C705A"/>
			<polygon fill-rule="evenodd" points="260.45 84.55 262.45 84.8 255.2 118.8" clip-rule="evenodd" fill="#7C705A"/>
			<polygon fill-rule="evenodd" points="349.95 189 338.95 160 351.6 189.35" clip-rule="evenodd" fill="#7C705A"/>
			<g clip-rule="evenodd" fill-rule="evenodd">
				<path d="m110.95 91.35l-31.35-22.05 46 20 59.35 28.7 40 89.3-9.45 31.7c-6.333 22-9.633 35.217-9.9 39.65-0.3 4.833 0.816 18.017 3.35 39.55 2.333 20 4.1 33.033 5.3 39.1 0.833 4.167 1.033 16.601 0.6 37.3-0.2 10.334-0.5 20.25-0.9 29.75l-13.55 19.6c-9.433 13.333-15.05 20.649-16.85 21.95l-0.6 0.449c1.5-3.233 2.5-6.416 3-9.55 1-6.267-1-9.083-6-8.45-5 0.634-13.5 2.317-25.5 5.051l-16.5 3.949c8.267-6.233 16.833-13.666 25.7-22.3 17.733-17.267 28.167-31.833 31.3-43.7 2.966-11.166 2.783-40.449-0.55-87.85-3.7-8.8-7.333-16.517-10.9-23.15-5.6-10.399-10.233-16.517-13.9-18.35-4.467-2.233-12.133-2.35-23-0.35l-15 3.649-14-21.3 15.35 17.3 18-2.649c6.466-1.034 11.85-1.134 16.15-0.301 4.5 0.834 8.217 2.717 11.15 5.65 4 4 10.45 11.55 19.35 22.65-0.1-2-0.367-4.167-0.8-6.5-0.9-4.667-2.183-7.834-3.85-9.5-0.333-0.301-0.733-0.767-1.2-1.4-1.033-11.9-2.15-23.9-3.35-36l-1.5-14.6-96.9 7.7-45-75 51.95 64.65 93.3-8.7 10 55.351 6-29.351 8.65-26.65-40.95-85.3-63-30z" fill="#4F4A3C"/>
				<path d="m343.45 191.85l-15-57 20.15 55.15 32.351 56.35-39 62.301-64.7 30.699-1.3 7.65c-0.967 6.267-1.7 12.35-2.2 18.25-1.6 18.9-0.533 32.366 3.2 40.4 3.767 8.066 13.233 21.6 28.399 40.6 7.567 9.5 14.767 18.2 21.601 26.1-5.233-4.5-10.917-8.866-17.05-13.1-12.267-8.5-20.584-12.134-24.95-10.9-4.367 1.267-8.184 5.65-11.45 13.15-1.6 3.733-2.783 7.35-3.55 10.85-3.167-4.633-7.25-9.166-12.25-13.6-10.034-8.9-19.667-12.9-28.9-12 1.067-2.167 0.917-7.217-0.45-15.15l-2.4-11.3c0.733-2.866 1.5-6.166 2.3-9.899 1.567-7.434 2.467-13.284 2.7-17.551 5.767-8.733 11.583-17.666 17.45-26.8 11.733-18.267 17.917-28.333 18.55-30.2 0.633-1.866 12.066-7.683 34.3-17.449 11.134-4.867 22.2-9.551 33.2-14.051l39-58.5-30-54z" fill="#4F4A3C"/>
				<path d="m344.95 192.55l-8-30.25 9.25 28.5 31.25 55.25-39.5 61.25-64.5 31.5-7.851 32c-0.8-0.5-1.8-0.7-3-0.6-2.367 0.2-4.483 1.8-6.35 4.8-2 3.167-4.783 8.217-8.35 15.15-3.4 6.633-5.633 11.267-6.7 13.899-1.333 3.3-2.1 5.9-2.3 7.8-0.3 3.034 0.383 5.767 2.05 8.2 1.867 2.733 5.216 5.167 10.05 7.3 4.8 2.101 9.2 3.084 13.2 2.95 3.333-0.1 5.717-1.5 7.149-4.2l1.101-4.05 2.2 7.15c2.066 5.2 4.666 8.899 7.8 11.1 5 3.5 13.833 9.5 26.5 18-5.834-2.633-9.767-4.283-11.8-4.95-3.2-1.1-6.517-1.699-9.95-1.8-3.467-0.1-7.384 3.334-11.75 10.3-2.167 3.5-4 7-5.5 10.5-0.867-1.033-2.233-2.5-4.101-4.399-3.7-3.767-8-7.733-12.899-11.9-4.9-4.166-10.534-6.95-16.9-8.35l-8.1-0.851c2.167-1.699 4.083-3.966 5.75-6.8 1.033-1.767 0.683-5.717-1.05-11.85l-2.95-8.65 5-26.5 34.5-56.5 66-30.25 40.5-59.5-30.75-54.25z" fill="#3E3A31"/>
				<path d="m394.25 166c-1.667 2.367-3.55 5.967-5.65 10.8-1.033 2.434-1.916 4.617-2.649 6.55l2.75-17.7 36.9-34.35c-4.566 4.833-9.283 9.9-14.149 15.2-9.8 10.63-15.53 17.13-17.2 19.5z" fill="#4F4A3C"/>
				<polygon points="443.95 154 433.6 190.65 440.25 154.65 426.25 139.3" fill="#4F4A3C"/>
				<path d="m361.4 303.2l-2.95-1.851 45 1.5 39-90 88.5-18-85.7 23.5-37.65 91.3c-20.666-1.101-33.333-2.2-38-3.301-2.9-0.7-5.63-1.75-8.2-3.15z" fill="#4F4A3C"/>
				<polygon points="101.95 141 82.5 140.85 0 104.85" fill="#4F4A3C"/>
				<polygon points="375.6 116 377.95 185.85 368.95 118.35 307.45 85.35 305.95 14.85 312.95 82.35" fill="#4F4A3C"/>
				<polygon points="374.95 206.85 365.6 201 394.45 196.35" fill="#4F4A3C"/>
				<polygon points="70.5 161.85 63.95 156.65 118.45 139.35" fill="#4F4A3C"/>
				<polygon points="82.25 60.65 66.95 85.35 132.25 121.3 58.9 86.65" fill="#4F4A3C"/>
				<polygon points="153.25 53.65 131.95 78 125.35 76.2 150.15 50.15 154.9 0" fill="#4F4A3C"/>
				<polygon points="196.45 20.85 197.6 12.35 258.95 84.65 251.95 137.85 253.6 86" fill="#4F4A3C"/>
				<polygon points="198.45 16.3 256.2 83.3 253.95 114.05 254.45 84.05 198.2 20.05" fill="#3E3A31"/>
				<polygon points="196.45 1.35 189.25 18 156.25 49 156.55 43.4" fill="#4F4A3C"/>
			</g>
			<path fill-rule="evenodd" clip-rule="evenodd" d="m264.45 373.3c0.833 1.9 1.8 5.617 2.899 11.15 1.267 6 2.217 11.95 2.851 17.85 1.767 16.033 0.684 24.7-3.25 26-4.667 1.566-10.333 0.467-17-3.3-6.8-3.866-9.967-8.1-9.5-12.7 0.233-2.366 1.433-6.166 3.6-11.399 2.133-5.167 4.567-10.217 7.3-15.15 6.9-12.5 11.27-16.65 13.1-12.45z" fill="#252421"/>
			<path fill-rule="evenodd" clip-rule="evenodd" d="m334.25 206l-39.35-4.7-10 28 20 8.7h36l-37.301 7.3-21.35-8c-7.1 0.467-14.533 1.283-22.3 2.45-15.567 2.333-25.017 5.3-28.35 8.9s-6.45 9.35-9.35 17.25c-1.433 3.933-2.55 7.517-3.35 10.75l5.35-42.65 50-2.7 15.35-40 42 6.7 20.65-27.35-18 35.35z" fill="#5D5646"/>
			<path fill-rule="evenodd" clip-rule="evenodd" d="m260.75 94.75c-11.77-0.333-19.05 0.75-21.85 3.25-2.933 2.667-6.2 7.25-9.8 13.75-2.733 4.933-5.017 9.683-6.85 14.25-1.1 2.767-2.533 11.15-4.3 25.15-0.9 7-1.684 13.717-2.35 20.15l-10.7-15.3c5.333-19.1 8.233-31.1 8.7-36 0.267-3.067-1.983-8.883-6.75-17.45l-7.25-11.9-14.7-5.35 18 0.7 7 13.4c5.133 9 8.8 13.633 11 13.9 2.233 0.3 5.35-3.5 9.35-11.4 2-3.933 3.783-7.9 5.35-11.9h40l21.3-18.7-19.3 24.7c-5.33-0.667-10.95-1.083-16.85-1.25z" fill="#5D5646"/>
				<path fill-rule="evenodd" clip-rule="evenodd" d="m251.35 385.75c6.9-12.5 11.267-16.65 13.1-12.45l-3.05 1.851c-2.6 2.366-5.417 6.416-8.45 12.149-3.967 7.5-6.5 14.066-7.6 19.7-1.067 5.366-0.7 8.917 1.1 10.65 3.466 3.3 7.483 5.783 12.05 7.449 4.433 1.634 7.983 1.983 10.65 1.051-0.567 1.133-1.301 1.85-2.2 2.149-4.667 1.566-10.333 0.467-17-3.3-6.8-3.866-9.967-8.1-9.5-12.7 0.233-2.366 1.433-6.166 3.6-11.399 2.13-5.17 4.57-10.22 7.3-15.15z" fill="#5D5646"/>
			<g fill-rule="evenodd" clip-rule="evenodd" fill="#4F4A3C">
				<path d="m199.6 90.65l-14.7-5.35 16.7 3.7 7.2 11.55c4.9 8.1 7.667 13.083 8.3 14.95s0.3 6.183-1 12.95c-0.7 3.8-1.867 9.533-3.5 17.2-0.767 4.233-1.3 8.533-1.6 12.9-0.167 2.167-0.25 3.917-0.25 5.25l-0.45-0.05-5.4-7.75c5.333-19.1 8.233-31.1 8.7-36 0.267-3.067-1.983-8.883-6.75-17.45l-7.25-11.9z"/>
				<path d="m235.6 90l-0.3 4.35c-0.6 3.667-1.95 7.483-4.05 11.45-2.067 3.967-4.417 6.4-7.05 7.3-0.833 0.3-1.633 0.417-2.4 0.35l-0.9-0.15c2.233 0.3 5.35-3.5 9.35-11.4 2-3.933 3.78-7.9 5.35-11.9z"/>
				<polygon points="276.1 92 275.6 90 296.9 71.3"/>
				<path d="m257.75 91.8c3.9-0.133 8.384 0.534 13.45 2 2.533 0.733 4.666 1.467 6.399 2.2-5.333-0.667-10.933-1.083-16.8-1.25-11.767-0.333-19.05 0.75-21.85 3.25 0-0.233 0.05-0.4 0.15-0.5 1.333-1.667 3.617-2.983 6.85-3.95 3.2-1 7.13-1.583 11.8-1.75z"/>
			</g>
			<g fill-rule="evenodd" clip-rule="evenodd" fill="#4F4A3C">
				<polygon points="332.75 201.5 331.6 198 352.25 170.65"/>
				<polygon points="294.9 201.3 298.75 198 334.25 206"/>
				<polygon points="277.95 231.5 274.25 231.3 289.6 191.3"/>
				<path d="m282.25 237.3c-6.4 0.4-13.267 1.134-20.6 2.2-14.6 2.066-24.133 4.7-28.6 7.9l0.05-0.101c2.967-4.033 12.217-7.366 27.75-10 7.766-1.333 15.233-2.267 22.4-2.8l21 7.3 36.65-3.8-37.301 7.3-21.35-8z"/>
			</g>
		<path fill-rule="evenodd" clip-rule="evenodd" d="m185 280.05l-9.75-15.75 4.95 5.15c3.533 3.7 5.783 6.316 6.75 7.85 0.767 1.233 3.8 5.65 9.1 13.25 4.967 7.601 7.6 12.851 7.9 15.75 0.833 9.066 1.716 20.517 2.65 34.351 1.4 20.733 1.95 34.85 1.65 42.35-0.433 11.5-1 20.384-1.7 26.65-1.066 9.533-2.716 16.75-4.95 21.649-3.333 7.334-9.55 19.017-18.65 35.05 0.867-1.899 1.566-4.033 2.1-6.399 1.067-4.8 0.784-8.434-0.85-10.9-0.833-1.233-6.284-0.833-16.35 1.2l-14.9 3.4c6.433-6.667 13.05-13.733 19.85-21.2 13.534-14.934 21.133-24.417 22.8-28.45 1.833-4.4 3.283-11 4.35-19.8 0.867-7.3 1.3-14.15 1.3-20.55 0-9.601-0.25-19.733-0.75-30.4-0.733-15.667-1.817-25.65-3.25-29.95-1.37-4.17-5.45-11.92-12.25-23.25z" fill="#3E3A31"/>
		<path fill-rule="evenodd" clip-rule="evenodd" d="m198.25 273.3c-1.1-3.6-2.2-5.684-3.3-6.25-0.367-0.166-0.7-0.184-1-0.05l-0.35 0.3-6-50.3-95.65 6.3-31-48.65 34 45.35 94.65-8 8.65 61.3z" fill="#3E3A31"/>
		<polygon fill-rule="evenodd" points="88.25 138.3 82.95 139 45.6 123.3" clip-rule="evenodd" fill="#3E3A31"/>
		<polygon fill-rule="evenodd" points="202.95 260.3 218.6 207 177.25 121 111.6 88.3 182.95 120.65 221.95 207.3 202.6 270.65" clip-rule="evenodd" fill="#3E3A31"/>
		<path fill-rule="evenodd" clip-rule="evenodd" d="m216.25 120.8c-0.433 4.133-2.933 16.583-7.5 37.35 0-0.566-0.067-1.15-0.2-1.75-0.3-1.133-0.833-1.667-1.6-1.6 1.267-4.466 2.55-9.183 3.85-14.15 2.567-9.933 3.883-16.15 3.95-18.65 0.1-2.5-0.2-4.95-0.9-7.35l-1.1-2.85 2 2.2c1.3 1.97 1.8 4.23 1.5 6.8z" fill="#3E3A31"/>
		<polygon fill-rule="evenodd" points="63.95 86.05 101.95 105.8 61.2 86.8" clip-rule="evenodd" fill="#3E3A31"/>
		<polygon fill-rule="evenodd" points="444.95 214.65 406.95 306.65 405.95 303.65 438.25 225.3" clip-rule="evenodd" fill="#3E3A31"/>
		<polygon fill-rule="evenodd" points="374.95 154 371.25 118 309.25 84.65 307.6 40.3 311.6 84.3 373.95 117" clip-rule="evenodd" fill="#3E3A31"/>
		<polygon fill-rule="evenodd" points="385.6 199.65 374.95 205 369.25 202" clip-rule="evenodd" fill="#3E3A31"/>
		<path fill-rule="evenodd" clip-rule="evenodd" d="m277.2 386.55l2.6 6.4c1.967 4.533 3.517 7.483 4.65 8.85 1.033 1.233 5.6 4.084 13.7 8.55 9.066 5.034 14.25 8.017 15.55 8.95 1.767 1.267 4.967 3.316 9.6 6.15 4.634 3 8.767 6.116 12.4 9.35 4.333 3.834 10.866 8.816 19.6 14.95 8.4 5.934 14.117 9.616 17.15 11.05 3.701 1.771 11.835 5.404 24.399 10.9-11.705-3.573-21.255-6.54-28.649-8.9-8.9-3.2-15.717-5.55-20.45-7.05-8.434-2.7-14.366-3.684-17.8-2.95s-5.584 2.783-6.45 6.15c-0.434 1.7-0.533 3.316-0.3 4.85-2.5-7-4.5-11.833-6-14.5-1.066-1.899-4.783-6.684-11.15-14.35-6.033-7.3-10.816-12.851-14.35-16.65-2.7-2.899-5.934-9.066-9.7-18.5l-4.8-13.25z" fill="#595243"/>
		<path fill-rule="evenodd" clip-rule="evenodd" d="m318.75 435c-2.134-2.566-6.717-6.7-13.75-12.4l-9.9-7.8 6.9 3.25c5.134 2.566 9.05 4.816 11.75 6.75 2.434 1.767 5.267 4.217 8.5 7.351 4.134 4.066 7.083 6.85 8.85 8.35 2.934 2.5 9.65 6.833 20.15 13 5.233 3.1 10.184 5.934 14.85 8.5-15.233-4.9-25.283-7.85-30.149-8.85-3.066-0.634-5.601-0.65-7.601-0.051l-2.1 1.051c-0.366-2.167-0.967-4.584-1.8-7.25-1.63-5.37-3.53-9.33-5.7-11.9z" fill="#4F4A3C"/>
		<polygon fill-rule="evenodd" points="446.7 220.05 447.95 221.55 411.45 314.8 410.2 310.55" clip-rule="evenodd" fill="#7C705A"/>
		<polygon fill-rule="evenodd" points="372.95 210.3 386.95 248.55 384.2 246.55 364.45 206.8 378.2 229.8" clip-rule="evenodd" fill="#7C705A"/>
		<polygon fill-rule="evenodd" points="426.7 133.8 443.7 152.05 425.45 135.05" clip-rule="evenodd" fill="#7C705A"/>
		<path fill-rule="evenodd" clip-rule="evenodd" d="m386.75 164.15c-0.167-0.7-0.417-1.433-0.75-2.2-0.7-1.5-1.5-2.317-2.4-2.45-0.899-0.133-1.583 1.767-2.05 5.7-0.233 1.966-0.383 3.95-0.45 5.95l-3.35-55.3 9 48.3z" fill="#7C705A"/>
		<polygon fill-rule="evenodd" points="314.75 81.65 309.6 41 316.6 81" clip-rule="evenodd" fill="#7C705A"/>
		<polygon fill-rule="evenodd" points="367.95 109.85 324.1 85.65 369.6 109.65" clip-rule="evenodd" fill="#7C705A"/>
		<path fill-rule="evenodd" clip-rule="evenodd" d="m314 414.8l-8.3-3.5 6.7 2c5.066 1.667 9 3.334 11.8 5 2.8 1.667 6.733 5.167 11.8 10.5 2.5 2.667 4.733 5.167 6.7 7.5-6-5-11.167-9.5-15.5-13.5-2.7-2.5-7.1-5.17-13.2-8z" fill="#7C705A"/>
		<polygon fill-rule="evenodd" points="380.7 253.8 377.2 263.05 385.2 251.8 357.2 299.05 358.95 293.3 350.2 303.3" clip-rule="evenodd" fill="#7C705A"/>
		<polygon fill-rule="evenodd" points="329.7 199.3 331.2 202.05 292.2 192.8" clip-rule="evenodd" fill="#7C705A"/>
		<polygon fill-rule="evenodd" points="285.7 231.05 303.95 240.05 285.2 233.05" clip-rule="evenodd" fill="#7C705A"/>
		<path fill-rule="evenodd" clip-rule="evenodd" d="m240.45 236.8c-3.633 0.634-7.517 1.65-11.65 3.05l-5.1 1.95 5.75-6.5 41.75-2.5c-14.67 1.67-24.92 3-30.75 4z" fill="#7C705A"/>
		<path fill-rule="evenodd" clip-rule="evenodd" d="m215.95 280.55c0.2-2.066 1.216-5.934 3.05-11.6l2.7-7.9-4.75 23.75 5.5 55.75-3-7.5-2.25 22.75c0-6-0.167-12.5-0.5-19.5-0.2-4.366-1.05-13.217-2.55-26.55l-2.2-18.7 3.75 10c-0.17-10.33-0.08-17.17 0.25-20.5z" fill="#7C705A"/>
		<polygon fill-rule="evenodd" points="227.45 203.05 212.2 168.55 230.7 205.05" clip-rule="evenodd" fill="#7C705A"/>
		<polygon fill-rule="evenodd" points="212.95 162.3 219.7 118.55 214.45 167.8" clip-rule="evenodd" fill="#7C705A"/>
		<path fill-rule="evenodd" clip-rule="evenodd" d="m259.95 82.55l-61.25-73.75-0.5-3c0.3 0.1 10.983 12.833 32.05 38.2 10.5 12.7 20.983 25.383 31.45 38.05l-1.75 0.5z" fill="#7C705A"/>
		<polygon fill-rule="evenodd" points="184.45 27.55 170.45 45.8 166.2 44.55" clip-rule="evenodd" fill="#7C705A"/>
		<polygon fill-rule="evenodd" points="155.7 56.8 158.2 58.05 133.45 81.3" clip-rule="evenodd" fill="#7C705A"/>
		<polygon fill-rule="evenodd" points="201.45 144.3 189.2 117.55 191.2 115.3" clip-rule="evenodd" fill="#7C705A"/>
		<polygon fill-rule="evenodd" points="178.45 111.8 145.45 97.05 152.95 98.55 180.45 110.3" clip-rule="evenodd" fill="#7C705A"/>
		<polygon fill-rule="evenodd" points="107.7 139.8 46.2 120.05 111.95 138.55" clip-rule="evenodd" fill="#7C705A"/>
		<polygon fill-rule="evenodd" points="59.7 161.55 71.2 168.05 98.2 211.3" clip-rule="evenodd" fill="#7C705A"/>
		<polygon fill-rule="evenodd" points="100.45 212.8 106.95 210.55 186.45 201.3 188.2 203.55" clip-rule="evenodd" fill="#7C705A"/>
		<polygon fill-rule="evenodd" points="192.2 203.3 203.45 235.55 200.95 249.55" clip-rule="evenodd" fill="#7C705A"/>
		<polygon fill-rule="evenodd" points="132.95 260.05 127.2 253.05 135.2 260.3" clip-rule="evenodd" fill="#7C705A"/>
		<path fill-rule="evenodd" clip-rule="evenodd" d="m193.2 274.55c0.5 2 0.75 3.5 0.75 4.5-2.567-3.967-5.9-8.3-10-13-3.733-4.267-7.983-7.217-12.75-8.85-1.5-0.5-2.95-0.851-4.35-1.05l-1.65-0.101 5.2-0.05c3.9 0.467 7 1.9 9.3 4.3l13.5 14.25z" fill="#7C705A"/>
		<path fill-rule="evenodd" clip-rule="evenodd" d="m223.45 350.3c1.667 22 2.5 34 2.5 36 0 1.267-0.917 7.65-2.75 19.15-0.9 5.733-1.817 11.35-2.75 16.85v-36c0-4.366 0.5-11.684 1.5-21.95l1.5-14.05z" fill="#4F4A3C"/>
		<polygon fill-rule="evenodd" points="342.45 313.8 346.45 316.3 291.95 335.8" clip-rule="evenodd" fill="#4F4A3C"/>
		<polygon fill-rule="evenodd" points="361.95 310.8 405.45 312.8 355.95 314.3" clip-rule="evenodd" fill="#4F4A3C"/>
		<polygon fill-rule="evenodd" points="389.95 194.8 359.95 193.8 390.95 190.3" clip-rule="evenodd" fill="#4F4A3C"/>
		<path fill-rule="evenodd" clip-rule="evenodd" d="m229.2 211.55l-1.7 8.35c-1.233 5.967-2.167 9.934-2.8 11.9-1 3.167-5.5 13.75-13.5 31.75 2.5-6.833 4.25-11.833 5.25-15 1-3.166 4.167-15.333 9.5-36.5l3.25-0.5z" fill="#4F4A3C"/>
		<polygon fill-rule="evenodd" points="55.95 154.05 51.7 151.55 80.95 143.8" clip-rule="evenodd" fill="#4F4A3C"/>
		<polygon fill-rule="evenodd" points="417.95 143.3 420.45 142.55 395.2 168.55" clip-rule="evenodd" fill="#4F4A3C"/>
		<polygon fill-rule="evenodd" points="278.95 343.55 281.95 344.55 275.95 384.05" clip-rule="evenodd" fill="#4F4A3C"/>
	<g clip-rule="evenodd">
		<g fill-rule="evenodd">
				<path d="m335.3 263.05c1.066 0 1.767 0.267 2.101 0.8 0.3 0.434 0.366 1.684 0.199 3.75-0.166 2.101-0.466 3.25-0.899 3.45s-1.084-0.066-1.95-0.8-1.083-1.134-0.65-1.2c0.367-0.033 0.65-0.3 0.851-0.8s0.267-1.1 0.2-1.8c-0.067-0.566-0.367-1.05-0.9-1.45l-0.75-0.4c0.03-1 0.63-1.52 1.8-1.55z" fill="#7C8182"/>
				<polygon points="327.3 271.55 331.3 272 331 274.25 329.55 273.55" fill="#7C8182"/>
				<path d="m329.25 270.9c-0.3-0.301-0.55-0.65-0.75-1.051-0.1-0.233-0.184-0.683-0.25-1.35l-0.05-0.95 3.2-0.149 0.199 4.949-2.35-1.45z" fill="#999E9E"/>
				<polygon points="327.25 264.9 327.85 266.85 327.5 269.35 325.8 269.05 325.85 265" fill="#999E9E"/>
				<path d="m328.75 262.8l2.15-0.399-0.4 3.949-2.55-0.25c-0.101-0.8-0.017-1.566 0.25-2.3l0.55-1z" fill="#B1B5B5"/>
				<path d="m332.05 259.85l1.25-0.5 0.25 0.75-1.7 2.801-1.85-1.35 0.2-0.3c0.166-0.267 0.383-0.533 0.649-0.8 0.4-0.4 0.8-0.6 1.2-0.6z" fill="#B6BBBA"/>
				<path d="m332.65 257.8c0.433 0.434 0.533 1.117 0.3 2.05h-0.9l-0.35-2 0.95-0.05z" fill="#999E9E"/>
				<path d="m328.1 261.8h0.65c0.467 0.033 0.767 0.084 0.9 0.15 0.199 0.1 0.3 0.434 0.3 1l-1.2-0.15-1.9-0.85 1.25-0.15z" fill="#747879"/>
				<polygon points="327.3 271.55 329.05 270.7 330.25 270.95 330.55 272.4" fill="#B1B5B5"/>
				<polygon points="333.45 275.7 332.1 275.05 332.85 273.05 334.45 273.35" fill="#999E9E"/>
				<polygon points="338.5 259.6 337.05 262.1 334.8 260.75 336.4 259.45" fill="#BFC4C3"/>
				<polygon points="340.95 264.55 338.3 265.45 336.9 264.15 339.05 264.1" fill="#EBECEB"/>
				<polygon points="338.65 273.35 336.75 272.7 337.45 271.3" fill="#7C8182"/>
				<path d="m334.85 269.2c1.101 0 1.601-0.816 1.5-2.45-0.1-1.667-0.683-2.533-1.75-2.6-0.8-0.067-1.233 0.767-1.3 2.5-0.03 1.7 0.48 2.55 1.55 2.55zm-1.9-9.35l-0.3-2.05h3.1l-0.2 2.15c0.667 0.2 1.217 0.517 1.65 0.95l1.3-1.301 1.55 2.851-1.3 0.6c0.267 0.634 0.434 1.167 0.5 1.601l1.7-0.101v2.8l-1.4 0.2c-0.066 1-0.2 1.8-0.399 2.4l1.149 0.7-1.649 2.699-0.95-0.649c-0.334 0.366-0.733 0.684-1.2 0.95l0.3 1.899-3.35 0.15 0.399-1.75c-0.633-0.134-1.199-0.384-1.699-0.75l-1.15 1.05-2.35-2.3 1.6-1c-0.3-0.634-0.533-1.3-0.7-2l-2.05 0.399-0.25-4.449 2.15 0.149c0.1-0.666 0.283-1.366 0.55-2.1l-1.851-1.15 1.851-2.5 1.35 1.55c0.47-0.53 1.02-0.87 1.65-1z" fill="#D4D9D7"/>
				<polygon points="329.95 259.3 328.1 261.8 326.85 261.95 328.5 259.45" fill="#B1B5B5"/>
			<path d="m332.45 260.85l0.35 0.15c-0.333 0.1-0.7 0.434-1.1 1-0.667 0.8-1.017 2.333-1.05 4.6-0.034 1.467 0.216 2.784 0.75 3.95 0.566 1.267 1.35 2.033 2.35 2.3 0.934 0.267 1.884 0.217 2.85-0.149 0.467-0.2 0.851-0.417 1.15-0.65-0.233 0.334-0.616 0.617-1.15 0.851-0.566 0.3-1.267 0.433-2.1 0.399-1.033 0-1.833-0.333-2.4-1-0.633-0.733-1.1-1.85-1.399-3.35-0.334-1.5-0.417-2.934-0.25-4.3 0.1-1.134 0.467-2.101 1.1-2.9 0.3-0.4 0.6-0.7 0.9-0.9z" fill="#B1B5B5"/>
			<path d="m334.95 260.75l0.8 0.15c0.6 0.166 1.1 0.466 1.5 0.899 0.667 0.667 1.184 2.101 1.55 4.3h-0.35c-0.367-2.133-0.834-3.517-1.4-4.149-0.267-0.3-0.7-0.601-1.3-0.9l-0.8-0.3z" fill="#EBECEB"/>
			<path d="m332.7 267.65c-0.167-1.067-0.066-2.034 0.3-2.9s0.833-1.3 1.4-1.3c1.267 0 2.066 1 2.399 3 0.167 0.967 0.066 1.783-0.3 2.45-0.333 0.566-0.733 0.866-1.2 0.899-1.43 0.17-2.3-0.55-2.6-2.15zm0.6-3c-0.366 0.633-0.483 1.366-0.35 2.199 0.233 2 0.95 2.917 2.149 2.75 0.634-0.066 1.084-0.416 1.351-1.05 0.233-0.566 0.283-1.233 0.149-2-0.333-1.866-1.05-2.8-2.149-2.8-0.47 0-0.85 0.3-1.15 0.9z" fill="#B1B5B5"/>
		</g>
			<line stroke-width=".5" y2="264.85" x2="334.45" stroke="#454748" y1="239" x1="334.6" fill="none"/>
	</g>
	<g clip-rule="evenodd">
		<g fill-rule="evenodd">
				<path d="m252.35 167.3c-0.867-0.733-1.1-1.133-0.7-1.2 0.4-0.033 0.7-0.317 0.9-0.85 0.2-0.5 0.25-1.083 0.15-1.75-0.067-0.567-0.35-1.05-0.85-1.45l-0.75-0.4c0.033-1 0.633-1.517 1.8-1.55 1.033-0.033 1.733 0.217 2.1 0.75 0.3 0.467 0.367 1.733 0.2 3.8-0.167 2.1-0.483 3.25-0.95 3.45-0.43 0.2-1.07-0.07-1.9-0.8z" fill="#7C8182"/>
				<polygon points="244.9 168.6 248.9 169.05 248.6 171.3 247.15 170.6" fill="#7C8182"/>
				<path d="m246.8 167.9c-0.3-0.267-0.533-0.6-0.7-1-0.133-0.233-0.217-0.683-0.25-1.35l-0.05-0.95 3.15-0.15 0.25 4.9-2.4-1.45z" fill="#999E9E"/>
				<polygon points="244.85 161.95 245.45 163.9 245.1 166.4 243.4 166.1 243.4 162" fill="#999E9E"/>
				<path d="m246.3 159.85l2.2-0.4-0.4 3.95-2.55-0.25c-0.1-0.8-0.033-1.566 0.2-2.3l0.55-1z" fill="#B1B5B5"/>
				<path d="m249.65 156.85l1.25-0.45 0.25 0.75-1.7 2.8-1.85-1.35 0.2-0.3c0.167-0.267 0.367-0.533 0.6-0.8 0.4-0.43 0.82-0.65 1.25-0.65z" fill="#B6BBBA"/>
				<path d="m250.2 154.85c0.466 0.4 0.583 1.066 0.35 2h-0.9l-0.4-1.95 0.95-0.05z" fill="#999E9E"/>
				<path d="m245.65 158.85l1.55 0.1c0.233 0.133 0.35 0.483 0.35 1.05l-1.25-0.15-1.85-0.9 1.2-0.1z" fill="#747879"/>
				<polygon points="244.9 168.6 246.65 167.7 247.85 168 248.1 169.45" fill="#B1B5B5"/>
				<polygon points="251.05 172.75 249.65 172.1 250.45 170.05 252 170.4" fill="#999E9E"/>
				<polygon points="256.1 156.65 254.65 159.15 252.4 157.8 253.95 156.45" fill="#BFC4C3"/>
				<polygon points="258.5 161.6 255.9 162.5 254.5 161.15 256.65 161.15" fill="#EBECEB"/>
				<polygon points="256.25 170.4 254.35 169.75 255.05 168.35" fill="#7C8182"/>
				<path d="m250.9 163.7c-0.066 1.7 0.434 2.55 1.5 2.55 1.133 0 1.65-0.817 1.55-2.45-0.1-1.667-0.684-2.533-1.75-2.6-0.8-0.07-1.23 0.77-1.3 2.5zm2.4-8.85l-0.15 2.15c0.633 0.2 1.184 0.517 1.65 0.95l1.3-1.3 1.5 2.85-1.25 0.6 0.5 1.55 1.65-0.05v2.75l-1.4 0.25c0 0.733-0.117 1.533-0.35 2.4l1.1 0.7-1.6 2.7-0.95-0.65c-0.333 0.4-0.75 0.717-1.25 0.95l0.3 1.9-3.3 0.15 0.4-1.8c-0.6-0.1-1.167-0.333-1.7-0.7l-1.15 1.05-2.35-2.3 1.6-1c-0.3-0.633-0.533-1.3-0.7-2l-2.05 0.4-0.25-4.45 2.15 0.15c0.1-0.667 0.283-1.367 0.55-2.1l-1.9-1.15 1.9-2.55 1.3 1.6c0.5-0.5 1.066-0.85 1.7-1.05l-0.35-2h3.1z" fill="#D4D9D7"/>
				<polygon points="247.55 156.3 245.65 158.85 244.45 158.95 246.05 156.5" fill="#B1B5B5"/>
			<path d="m250 157.9l0.4 0.15c-0.333 0.1-0.717 0.434-1.15 1-0.667 0.867-1.017 2.4-1.05 4.6 0 1.467 0.25 2.767 0.75 3.9 0.6 1.3 1.4 2.083 2.4 2.35 1.433 0.4 2.767 0.133 4-0.8-0.267 0.3-0.65 0.583-1.15 0.85-0.6 0.267-1.3 0.383-2.1 0.35-1.067 0-1.867-0.333-2.4-1-0.633-0.733-1.117-1.85-1.45-3.35-0.3-1.467-0.383-2.883-0.25-4.25 0.133-1.133 0.5-2.1 1.1-2.9 0.33-0.4 0.63-0.7 0.9-0.9z" fill="#B1B5B5"/>
			<path d="m252.55 157.8l0.8 0.15c0.6 0.167 1.1 0.45 1.5 0.85 0.667 0.7 1.183 2.15 1.55 4.35h-0.35c-0.4-2.133-0.867-3.517-1.4-4.15-0.3-0.3-0.733-0.6-1.3-0.9l-0.8-0.3z" fill="#EBECEB"/>
			<path d="m252.9 166.85c-1.433 0.167-2.3-0.55-2.6-2.15-0.167-1.067-0.066-2.034 0.3-2.9 0.333-0.867 0.783-1.3 1.35-1.3 1.3 0 2.117 1 2.45 3 0.133 0.967 0.017 1.783-0.35 2.45-0.3 0.57-0.68 0.87-1.15 0.9zm-2.05-5.15c-0.333 0.633-0.45 1.367-0.35 2.2 0.233 1.967 0.967 2.883 2.2 2.75 0.633-0.066 1.083-0.417 1.35-1.05 0.233-0.6 0.284-1.283 0.15-2.05-0.333-1.833-1.05-2.75-2.15-2.75-0.47 0-0.87 0.3-1.2 0.9z" fill="#B1B5B5"/>
		</g>
			<line stroke-width=".5" y2="161.85" x2="252" stroke="#454748" y1="136.05" x1="252.2" fill="none"/>
	</g>
	<g clip-rule="evenodd">
		<g fill-rule="evenodd">
				<path d="m127.35 145.3c0.033-0.966 0.633-1.466 1.8-1.5 1.033 0 1.733 0.25 2.1 0.75 0.3 0.434 0.367 1.684 0.2 3.75-0.167 2.133-0.483 3.3-0.95 3.5-0.433 0.2-1.067-0.083-1.9-0.85-0.867-0.733-1.1-1.133-0.7-1.2 0.4-0.033 0.7-0.3 0.9-0.8s0.25-1.1 0.15-1.8c-0.067-0.566-0.35-1.05-0.85-1.45l-0.75-0.4z" fill="#7C8182"/>
				<polygon points="125.15 152.75 124.85 154.95 123.4 154.25 121.15 152.25" fill="#7C8182"/>
				<path d="m125.2 148.15l0.25 4.9-2.4-1.45c-0.3-0.3-0.533-0.65-0.7-1.05-0.133-0.233-0.217-0.683-0.25-1.35l-0.05-0.9 3.15-0.15z" fill="#999E9E"/>
				<polygon points="119.65 145.7 121.1 145.6 121.7 147.55 121.35 150.05 119.65 149.8" fill="#999E9E"/>
				<path d="m122.55 143.55l2.2-0.45-0.4 3.95-2.55-0.25c-0.1-0.8-0.033-1.55 0.2-2.25l0.55-1z" fill="#B1B5B5"/>
				<path d="m125.9 140.55l1.25-0.5 0.25 0.75-1.7 2.8-1.85-1.35c0.133-0.333 0.4-0.7 0.8-1.1 0.267-0.233 0.55-0.4 0.85-0.5 0.17-0.07 0.3-0.1 0.4-0.1z" fill="#B6BBBA"/>
				<path d="m126.45 138.55c0.466 0.4 0.583 1.067 0.35 2h-0.9l-0.4-2h0.95z" fill="#999E9E"/>
				<path d="m121.9 142.5h0.65c0.467 0.033 0.767 0.083 0.9 0.15 0.233 0.1 0.35 0.434 0.35 1l-1.25-0.1-1.85-0.9 1.2-0.15z" fill="#747879"/>
				<polygon points="124.35 153.1 121.15 152.25 122.9 151.4 124.1 151.65" fill="#B1B5B5"/>
				<polygon points="127.3 156.4 125.9 155.8 126.7 153.75 128.25 154.05" fill="#999E9E"/>
				<polygon points="132.35 140.3 130.9 142.8 128.65 141.5 130.2 140.15" fill="#BFC4C3"/>
				<polygon points="134.75 145.25 132.15 146.15 130.75 144.85 132.9 144.85" fill="#EBECEB"/>
				<polygon points="132.5 154.05 130.6 153.4 131.3 152.05" fill="#7C8182"/>
				<path d="m128.45 144.85c-0.8-0.067-1.233 0.767-1.3 2.5-0.066 1.7 0.434 2.55 1.5 2.55 1.133 0 1.65-0.816 1.55-2.45-0.1-1.63-0.68-2.5-1.75-2.6zm1.1-6.3l-0.15 2.1c0.533 0.167 1.083 0.483 1.65 0.95l1.3-1.3 1.5 2.85-1.25 0.65c0.133 0.3 0.3 0.817 0.5 1.55l1.65-0.1v2.8l-1.4 0.2c0 0.733-0.117 1.533-0.35 2.4l1.1 0.7-1.6 2.7-0.95-0.65c-0.333 0.4-0.75 0.717-1.25 0.95l0.3 1.9-3.3 0.15 0.4-1.75c-0.633-0.133-1.2-0.383-1.7-0.75l-1.15 1.05-2.35-2.3 1.6-1c-0.333-0.667-0.567-1.333-0.7-2l-2.05 0.4-0.25-4.45 2.15 0.2c0.1-0.733 0.283-1.45 0.55-2.15l-1.9-1.15 1.9-2.5 1.3 1.55c0.533-0.533 1.1-0.867 1.7-1l-0.35-2h3.1z" fill="#D4D9D7"/>
				<polygon points="123.8 140 121.9 142.5 120.7 142.65 122.3 140.15" fill="#B1B5B5"/>
			<path d="m126.25 141.55l0.4 0.15-0.35 0.2c-0.267 0.167-0.533 0.434-0.8 0.8-0.667 0.933-1.017 2.466-1.05 4.6 0 1.5 0.25 2.817 0.75 3.95 0.6 1.267 1.4 2.033 2.4 2.3 0.9 0.267 1.833 0.217 2.8-0.15 0.5-0.167 0.9-0.367 1.2-0.6-0.267 0.3-0.65 0.567-1.15 0.8-0.567 0.3-1.267 0.433-2.1 0.4-1.033 0-1.833-0.333-2.4-1-0.633-0.733-1.117-1.85-1.45-3.35-0.3-1.5-0.383-2.933-0.25-4.3 0.133-1.133 0.5-2.1 1.1-2.9l0.9-0.9z" fill="#B1B5B5"/>
			<path d="m128.8 141.45l0.8 0.15c0.6 0.167 1.1 0.467 1.5 0.9 0.667 0.7 1.183 2.133 1.55 4.3h-0.35c-0.4-2.133-0.867-3.517-1.4-4.15-0.3-0.3-0.733-0.6-1.3-0.9l-0.8-0.3z" fill="#EBECEB"/>
			<path d="m126.55 148.35c-0.167-1.067-0.066-2.033 0.3-2.9 0.333-0.867 0.783-1.3 1.35-1.3 1.3 0 2.117 1 2.45 3 0.133 0.967 0.017 1.783-0.35 2.45-0.3 0.566-0.683 0.883-1.15 0.95-1.43 0.1-2.3-0.63-2.6-2.2zm3.9-1.1c-0.333-1.867-1.05-2.8-2.15-2.8-0.466 0-0.867 0.3-1.2 0.9-0.333 0.633-0.45 1.367-0.35 2.2 0.233 2.034 0.967 2.95 2.2 2.75 0.633-0.066 1.083-0.417 1.35-1.05 0.23-0.57 0.28-1.23 0.15-2z" fill="#B1B5B5"/>
		</g>
			<line stroke-width=".5" y2="145.55" x2="128.25" stroke="#454748" y1="119.7" x1="128.45" fill="none"/>
	</g>
	<g clip-rule="evenodd">
		<g fill-rule="evenodd">
				<path d="m133.15 288.8c1.033 0 1.733 0.25 2.1 0.75 0.3 0.434 0.367 1.684 0.2 3.75-0.167 2.134-0.483 3.3-0.95 3.5-0.433 0.2-1.067-0.083-1.9-0.85-0.867-0.733-1.1-1.134-0.7-1.2 0.4-0.033 0.7-0.3 0.9-0.8s0.25-1.101 0.15-1.8c-0.067-0.567-0.35-1.051-0.85-1.45l-0.75-0.4c0.03-0.97 0.63-1.47 1.8-1.5z" fill="#7C8182"/>
				<polygon points="125.15 297.25 129.15 297.75 128.85 299.95 127.4 299.25" fill="#7C8182"/>
				<path d="m129.2 293.15l0.25 4.899-2.4-1.45c-0.3-0.3-0.533-0.649-0.7-1.05-0.133-0.233-0.217-0.684-0.25-1.35l-0.05-0.9 3.15-0.15z" fill="#999E9E"/>
				<polygon points="125.1 290.6 125.7 292.55 125.35 295.05 123.65 294.8 123.65 290.7" fill="#999E9E"/>
				<path d="m126.55 288.55l2.2-0.45-0.4 3.95-2.55-0.25c-0.1-0.8-0.033-1.55 0.2-2.25l0.55-1z" fill="#B1B5B5"/>
				<path d="m129.9 285.55l1.25-0.5 0.25 0.75-1.7 2.8-1.85-1.35c0.133-0.333 0.4-0.7 0.8-1.1 0.267-0.233 0.55-0.4 0.85-0.5 0.17-0.07 0.3-0.1 0.4-0.1z" fill="#B6BBBA"/>
				<path d="m130.45 283.55c0.466 0.4 0.583 1.066 0.35 2h-0.9l-0.4-2h0.95z" fill="#999E9E"/>
				<path d="m125.9 287.5h0.65c0.467 0.033 0.767 0.083 0.9 0.15 0.233 0.1 0.35 0.433 0.35 1l-1.25-0.101-1.85-0.899 1.2-0.15z" fill="#747879"/>
				<polygon points="128.1 296.65 128.35 298.1 125.15 297.25 126.9 296.4" fill="#B1B5B5"/>
				<polygon points="131.3 301.4 129.9 300.8 130.7 298.75 132.25 299.05" fill="#999E9E"/>
				<polygon points="136.35 285.3 134.9 287.8 132.65 286.5 134.2 285.15" fill="#BFC4C3"/>
				<polygon points="138.75 290.25 136.15 291.15 134.75 289.85 136.9 289.85" fill="#EBECEB"/>
				<polygon points="136.5 299.05 134.6 298.4 135.3 297.05" fill="#7C8182"/>
				<path d="m132.65 294.9c1.133 0 1.65-0.817 1.55-2.45-0.1-1.634-0.684-2.5-1.75-2.601-0.8-0.066-1.233 0.767-1.3 2.5-0.07 1.7 0.43 2.55 1.5 2.55zm-4.85-9.9l1.3 1.55c0.533-0.533 1.1-0.866 1.7-1l-0.35-2h3.1l-0.15 2.101c0.533 0.166 1.083 0.483 1.65 0.949l1.3-1.3 1.5 2.851-1.25 0.649c0.133 0.3 0.3 0.816 0.5 1.55l1.65-0.1v2.8l-1.4 0.2c0 0.733-0.117 1.533-0.35 2.4l1.1 0.699-1.6 2.7-0.95-0.649c-0.333 0.399-0.75 0.716-1.25 0.949l0.3 1.9-3.3 0.15 0.4-1.75c-0.633-0.134-1.2-0.384-1.7-0.75l-1.15 1.05-2.35-2.3 1.6-1c-0.333-0.667-0.567-1.334-0.7-2l-2.05 0.399-0.25-4.45 2.15 0.2c0.1-0.733 0.283-1.45 0.55-2.149l-1.9-1.15 1.9-2.5z" fill="#D4D9D7"/>
				<polygon points="127.8 285 125.9 287.5 124.7 287.65 126.3 285.15" fill="#B1B5B5"/>
			<path d="m130.25 286.55l0.4 0.15-0.35 0.2c-0.267 0.166-0.533 0.433-0.8 0.8-0.667 0.934-1.017 2.467-1.05 4.6 0 1.5 0.25 2.816 0.75 3.95 0.6 1.267 1.4 2.033 2.4 2.3 0.9 0.267 1.833 0.217 2.8-0.149 0.5-0.167 0.9-0.367 1.2-0.601-0.267 0.3-0.65 0.566-1.15 0.8-0.567 0.301-1.267 0.434-2.1 0.4-1.033 0-1.833-0.333-2.4-1-0.633-0.733-1.117-1.85-1.45-3.35-0.3-1.5-0.383-2.934-0.25-4.301 0.133-1.133 0.5-2.1 1.1-2.899l0.9-0.9z" fill="#B1B5B5"/>
			<path d="m132.8 286.45l0.8 0.149c0.6 0.167 1.1 0.467 1.5 0.9 0.667 0.7 1.183 2.134 1.55 4.3h-0.35c-0.4-2.133-0.867-3.517-1.4-4.149-0.3-0.301-0.733-0.601-1.3-0.9l-0.8-0.3z" fill="#EBECEB"/>
			<path d="m130.55 293.35c-0.167-1.066-0.066-2.033 0.3-2.899 0.333-0.867 0.783-1.3 1.35-1.3 1.3 0 2.117 1 2.45 3 0.133 0.966 0.017 1.783-0.35 2.449-0.3 0.567-0.683 0.884-1.15 0.95-1.43 0.1-2.3-0.63-2.6-2.2zm0.55-3c-0.333 0.634-0.45 1.367-0.35 2.2 0.233 2.033 0.967 2.95 2.2 2.75 0.633-0.066 1.083-0.416 1.35-1.05 0.233-0.566 0.284-1.233 0.15-2-0.333-1.866-1.05-2.8-2.15-2.8-0.47 0-0.87 0.3-1.2 0.9z" fill="#B1B5B5"/>
		</g>
			<line stroke-width=".5" y2="290.55" x2="132.25" stroke="#454748" y1="264.7" x1="132.45" fill="none"/>
	</g>
	<g clip-rule="evenodd">
		<g fill-rule="evenodd">
				<path d="m498.85 229.8c0.034-0.966 0.634-1.466 1.801-1.5 1.033 0 1.733 0.25 2.1 0.75 0.3 0.434 0.366 1.684 0.2 3.75-0.167 2.133-0.483 3.3-0.95 3.5-0.434 0.2-1.066-0.083-1.9-0.85-0.866-0.733-1.1-1.133-0.699-1.2 0.399-0.033 0.699-0.3 0.899-0.8s0.25-1.1 0.15-1.8c-0.066-0.566-0.351-1.05-0.851-1.45l-0.75-0.4z" fill="#7C8182"/>
				<polygon points="492.65 236.75 496.65 237.25 496.35 239.45 494.9 238.75" fill="#7C8182"/>
				<path d="m494.55 236.1c-0.3-0.3-0.533-0.65-0.7-1.05-0.133-0.233-0.216-0.683-0.25-1.35l-0.05-0.9 3.15-0.15 0.25 4.9-2.4-1.45z" fill="#999E9E"/>
				<polygon points="492.6 230.1 493.2 232.05 492.85 234.55 491.15 234.3 491.15 230.2" fill="#999E9E"/>
				<path d="m494.05 228.05l2.2-0.45-0.4 3.95-2.55-0.25c-0.1-0.8-0.033-1.55 0.2-2.25l0.55-1z" fill="#B1B5B5"/>
				<path d="m497.4 225.05l1.25-0.5 0.25 0.75-1.7 2.8-1.851-1.35 0.2-0.3c0.167-0.267 0.367-0.534 0.601-0.8 0.4-0.4 0.82-0.6 1.25-0.6z" fill="#B6BBBA"/>
				<path d="m497.95 223.05c0.467 0.4 0.583 1.067 0.35 2h-0.9l-0.4-2h0.95z" fill="#999E9E"/>
				<path d="m493.4 227h0.649c0.467 0.033 0.767 0.083 0.9 0.15 0.233 0.1 0.35 0.434 0.35 1l-1.25-0.1-1.85-0.9 1.2-0.15z" fill="#747879"/>
				<polygon points="492.65 236.75 494.4 235.9 495.6 236.15 495.85 237.6" fill="#B1B5B5"/>
				<polygon points="498.8 240.9 497.4 240.3 498.2 238.25 499.75 238.55" fill="#999E9E"/>
				<polygon points="503.85 224.8 502.4 227.3 500.15 226 501.7 224.65" fill="#BFC4C3"/>
				<polygon points="506.25 229.75 503.65 230.65 502.25 229.35 504.4 229.35" fill="#EBECEB"/>
				<polygon points="504 238.55 502.1 237.9 502.8 236.55" fill="#7C8182"/>
				<path d="m498.65 231.85c-0.067 1.7 0.433 2.55 1.5 2.55 1.133 0 1.649-0.816 1.55-2.45-0.101-1.633-0.684-2.5-1.75-2.6-0.8-0.07-1.23 0.77-1.3 2.5zm6.7-4.2l-1.25 0.65c0.134 0.3 0.301 0.817 0.5 1.55l1.65-0.1v2.8l-1.4 0.2c0 0.733-0.116 1.533-0.35 2.4l1.1 0.7-1.6 2.7-0.95-0.649c-0.333 0.399-0.75 0.716-1.25 0.949l0.3 1.9-3.3 0.15 0.4-1.75c-0.634-0.134-1.2-0.384-1.7-0.75l-1.15 1.05-2.35-2.3 1.6-1c-0.333-0.667-0.566-1.333-0.699-2l-2.051 0.4-0.25-4.45 2.15 0.2c0.1-0.733 0.283-1.45 0.55-2.15l-1.9-1.15 1.899-2.5 1.3 1.55c0.534-0.533 1.101-0.867 1.7-1l-0.35-2h3.1l-0.149 2.1c0.533 0.167 1.083 0.483 1.649 0.95l1.3-1.3 1.5 2.85z" fill="#D4D9D7"/>
				<polygon points="495.3 224.5 493.4 227 492.2 227.15 493.8 224.65" fill="#B1B5B5"/>
			<path d="m497.75 226.05l0.4 0.15c-0.334 0.1-0.717 0.433-1.15 1-0.667 0.933-1.017 2.466-1.05 4.6 0 1.5 0.25 2.817 0.75 3.95 0.6 1.267 1.399 2.033 2.399 2.3 0.9 0.267 1.834 0.217 2.801-0.149 0.5-0.167 0.899-0.367 1.199-0.601-0.267 0.3-0.649 0.566-1.149 0.8-0.566 0.301-1.267 0.434-2.101 0.4-1.033 0-1.833-0.333-2.399-1-0.634-0.733-1.117-1.85-1.45-3.35-0.3-1.5-0.384-2.933-0.25-4.3 0.134-1.133 0.5-2.1 1.1-2.9 0.33-0.4 0.63-0.7 0.9-0.9z" fill="#B1B5B5"/>
			<path d="m500.3 225.95l0.8 0.15c0.601 0.167 1.101 0.467 1.5 0.9 0.667 0.7 1.184 2.133 1.551 4.3h-0.35c-0.399-2.133-0.866-3.517-1.399-4.15-0.301-0.3-0.733-0.6-1.301-0.9l-0.8-0.3z" fill="#EBECEB"/>
			<path d="m498.05 232.85c-0.166-1.067-0.066-2.033 0.3-2.9 0.334-0.867 0.784-1.3 1.351-1.3 1.3 0 2.116 1 2.45 3 0.133 0.967 0.017 1.783-0.351 2.45-0.3 0.566-0.684 0.883-1.149 0.95-1.43 0.1-2.3-0.63-2.6-2.2zm0.2-0.8c0.233 2.034 0.967 2.95 2.2 2.75 0.633-0.066 1.083-0.417 1.35-1.05 0.233-0.567 0.283-1.233 0.15-2-0.334-1.867-1.05-2.8-2.15-2.8-0.467 0-0.866 0.3-1.2 0.9-0.33 0.63-0.45 1.37-0.35 2.2z" fill="#B1B5B5"/>
		</g>
			<line stroke-width=".5" y2="230.05" x2="499.75" stroke="#454748" y1="204.2" x1="499.95" fill="none"/>
	</g>
	<g clip-rule="evenodd">
		<g fill-rule="evenodd">
				<path d="m407.35 341.8c0.034-0.967 0.634-1.467 1.801-1.5 1.033 0 1.733 0.25 2.1 0.75 0.3 0.434 0.366 1.684 0.2 3.75-0.167 2.134-0.483 3.3-0.95 3.5-0.434 0.2-1.066-0.083-1.9-0.85-0.866-0.733-1.1-1.134-0.699-1.2 0.399-0.033 0.699-0.3 0.899-0.8s0.25-1.101 0.15-1.8c-0.066-0.567-0.351-1.051-0.851-1.45l-0.75-0.4z" fill="#7C8182"/>
				<polygon points="404.85 351.45 403.4 350.75 401.15 348.75 405.15 349.25" fill="#7C8182"/>
				<path d="m402.05 344.8l3.15-0.149 0.25 4.899-2.4-1.45c-0.3-0.3-0.533-0.649-0.7-1.05-0.133-0.233-0.216-0.684-0.25-1.35l-0.05-0.9z" fill="#999E9E"/>
				<polygon points="401.1 342.1 401.7 344.05 401.35 346.55 399.65 346.3 399.65 342.2" fill="#999E9E"/>
				<path d="m402.55 340.05l2.2-0.45-0.4 3.95-2.55-0.25c-0.1-0.8-0.033-1.55 0.2-2.25l0.55-1z" fill="#B1B5B5"/>
				<path d="m403.85 338.75l0.2-0.3c0.167-0.267 0.367-0.533 0.601-0.8 0.399-0.4 0.816-0.601 1.25-0.601l1.25-0.5 0.25 0.75-1.7 2.8-1.85-1.35z" fill="#B6BBBA"/>
				<path d="m406.45 335.05c0.467 0.4 0.583 1.066 0.35 2h-0.9l-0.4-2h0.95z" fill="#999E9E"/>
				<path d="m401.9 339h0.649c0.467 0.033 0.767 0.083 0.9 0.15 0.233 0.1 0.35 0.433 0.35 1l-1.25-0.101-1.85-0.899 1.2-0.15z" fill="#747879"/>
				<polygon points="401.15 348.75 402.9 347.9 404.1 348.15 404.35 349.6" fill="#B1B5B5"/>
				<polygon points="407.3 352.9 405.9 352.3 406.7 350.25 408.25 350.55" fill="#999E9E"/>
				<polygon points="412.35 336.8 410.9 339.3 408.65 338 410.2 336.65" fill="#BFC4C3"/>
				<polygon points="414.75 341.75 412.15 342.65 410.75 341.35 412.9 341.35" fill="#EBECEB"/>
				<polygon points="412.5 350.55 410.6 349.9 411.3 348.55" fill="#7C8182"/>
				<path d="m407.15 343.85c-0.067 1.7 0.433 2.551 1.5 2.551 1.133 0 1.649-0.817 1.55-2.45-0.101-1.634-0.684-2.5-1.75-2.601-0.8-0.07-1.23 0.77-1.3 2.5zm-6.05-1.75l2.15 0.2c0.1-0.733 0.283-1.45 0.55-2.149l-1.9-1.15 1.899-2.5 1.3 1.55c0.534-0.533 1.101-0.866 1.7-1l-0.35-2h3.1l-0.149 2.101c0.533 0.166 1.083 0.483 1.649 0.949l1.3-1.3 1.5 2.851-1.25 0.649c0.134 0.3 0.301 0.816 0.5 1.55l1.65-0.1v2.8l-1.4 0.2c0 0.733-0.116 1.533-0.35 2.4l1.1 0.699-1.6 2.7-0.95-0.649c-0.333 0.399-0.75 0.716-1.25 0.949l0.3 1.9-3.3 0.15 0.4-1.75c-0.634-0.134-1.2-0.384-1.7-0.75l-1.15 1.05-2.35-2.3 1.6-1c-0.333-0.667-0.566-1.334-0.699-2l-2.051 0.399-0.25-4.45z" fill="#D4D9D7"/>
				<polygon points="403.8 336.5 401.9 339 400.7 339.15 402.3 336.65" fill="#B1B5B5"/>
			<path d="m404.5 346.15c-0.3-1.5-0.384-2.934-0.25-4.301 0.134-1.133 0.5-2.1 1.1-2.899 0.334-0.4 0.634-0.7 0.9-0.9l0.4 0.15c-0.334 0.1-0.717 0.434-1.15 1-0.667 0.934-1.017 2.467-1.05 4.6 0 1.5 0.25 2.816 0.75 3.95 0.6 1.267 1.399 2.033 2.399 2.3 0.9 0.267 1.834 0.217 2.801-0.149 0.5-0.167 0.899-0.367 1.199-0.601-0.267 0.3-0.649 0.566-1.149 0.8-0.566 0.301-1.267 0.434-2.101 0.4-1.033 0-1.833-0.333-2.399-1-0.63-0.73-1.12-1.85-1.45-3.35z" fill="#B1B5B5"/>
			<path d="m408.8 337.95l0.8 0.149c0.601 0.167 1.101 0.467 1.5 0.9 0.667 0.7 1.184 2.134 1.551 4.3h-0.35c-0.399-2.133-0.866-3.517-1.399-4.149-0.301-0.301-0.733-0.601-1.301-0.9l-0.8-0.3z" fill="#EBECEB"/>
			<path d="m410.65 343.65c0.133 0.966 0.017 1.783-0.351 2.449-0.3 0.567-0.684 0.884-1.149 0.95-1.434 0.101-2.301-0.633-2.601-2.2-0.166-1.066-0.066-2.033 0.3-2.899 0.334-0.867 0.784-1.3 1.351-1.3 1.3 0 2.12 1 2.45 3zm-0.35 2.1c0.233-0.566 0.283-1.233 0.15-2-0.334-1.866-1.05-2.8-2.15-2.8-0.467 0-0.866 0.3-1.2 0.899-0.333 0.634-0.449 1.367-0.35 2.2 0.233 2.033 0.967 2.95 2.2 2.75 0.63-0.07 1.08-0.42 1.35-1.05z" fill="#B1B5B5"/>
		</g>
			<line stroke-width=".5" y2="342.05" x2="408.25" stroke="#454748" y1="316.2" x1="408.45" fill="none"/>
	</g>
	<g clip-rule="evenodd">
		<g fill-rule="evenodd">
			<polygon points="262.1 249.8 263 253.4 261.8 253.4 261.25 249.85" fill="#999E9E"/>
			<path d="m259.55 253.2l1-0.65c0.333-0.166 0.684-0.3 1.05-0.399l0.8 0.25-1.4 2.35-1.45-1.55z" fill="#B6BBBA"/>
			<path d="m257.65 262.85c-0.267-0.133-0.467-0.416-0.6-0.85l-0.5-1.7 2.05-0.649 0.55 3.25-0.75 1.5-0.75-1.55z" fill="#999E9E"/>
			<path d="m257.45 255.3l1.7-1 0.4 4.8-2.8 0.051v-1.75c0.067-0.467 0.15-0.817 0.25-1.051l0.45-1.05z" fill="#B1B5B5"/>
			<polygon points="253.35 257.25 256.75 257.4 257.5 257.65 255.3 258.15" fill="#BFC4C3"/>
			<path d="m265.95 258.75c-0.033-0.7-0.45-1.267-1.25-1.7l-1.2-0.45c0.267-0.767 0.983-1.066 2.15-0.899 1.199 0.133 2.066 0.649 2.6 1.55 0.533 0.934 0.566 2.116 0.1 3.55-0.466 1.467-1.233 2.351-2.3 2.65-1 0.267-1.85 0.033-2.55-0.7-0.733-0.767-0.65-1.184 0.25-1.25 1.53-0.1 2.27-1.02 2.2-2.75z" fill="#7C8182"/>
			<polygon points="269.75 251.15 267.9 255.05 266.15 253.3 268.75 250.95" fill="#BFC4C3"/>
			<polygon points="255.8 253.45 257.45 253.75 258.35 255.3 257.45 255.3 255.1 253.4" fill="#747879"/>
			<polygon points="256.25 264.45 255.25 264.05 257.65 262.85 258.85 263.25 257.85 264.6" fill="#B1B5B5"/>
			<polygon points="262.6 268.65 261.5 268.3 262.15 265.15 263.65 265.55" fill="#999E9E"/>
			<polygon points="269.75 267.05 268.35 266.45 267.15 264.9 268.25 264.3" fill="#7C8182"/>
			<polygon points="274.15 257.25 269.75 258.25 268.3 256.95 273.4 256.9" fill="#EBECEB"/>
			<path d="m266 250l-0.15 2.55c0.634 0.134 1.25 0.367 1.851 0.7l2.05-2.1 2.05 2.35-1.75 1.9c0.467 0.767 0.767 1.466 0.9 2.1l3.2-0.25-0.051 3.55-3-0.3c-0.1 0.833-0.35 1.566-0.75 2.2l2.25 1.25-2.85 3.1-1.8-1.85c-0.533 0.333-1.167 0.583-1.9 0.75l0.3 2.649-3.75 0.051 0.2-2.65c-0.833-0.134-1.6-0.417-2.3-0.85l-1.6 2.199-2.65-2.899 2.15-1.351c-0.4-0.666-0.683-1.383-0.85-2.149l-3.35 0.149 0.05-3.6 3.25 0.15c0.133-0.767 0.417-1.551 0.85-2.351l-2.55-1.85 2.35-2.65 2.05 2.5c0.667-0.467 1.4-0.767 2.2-0.899l-0.3-2.601 3.9 0.2zm0.7 9c-0.167-1.7-1.101-2.483-2.8-2.35-1.3 0.1-2 0.916-2.1 2.449-0.1 1.567 0.717 2.367 2.45 2.4 1.8 0.07 2.62-0.77 2.45-2.5z" fill="#D4D9D7"/>
			<polygon points="254.25 257.5 254.2 261.1 253.3 260.7 253.35 257.25" fill="#999E9E"/>
			<polygon points="255.25 264.05 256.25 264.45 258.9 267.35 257.5 266.65" fill="#7C8182"/>
			<path d="m265.6 265.5c-0.5 0.033-1.116 0-1.85-0.1-1.4-0.233-2.567-0.75-3.5-1.551-1.1-0.899-1.767-2.116-2-3.649-0.2-1.4-0.05-2.767 0.45-4.101 0.433-1.033 1.2-1.85 2.3-2.449 0.533-0.334 1.033-0.551 1.5-0.65v0.4c-0.5 0.233-1.017 0.517-1.55 0.85-1.1 0.733-1.75 1.467-1.95 2.2-0.833 2.899-0.417 5.133 1.25 6.7 0.967 0.899 2.167 1.483 3.6 1.75 0.7 0.133 1.3 0.183 1.8 0.149l-0.05 0.45z" fill="#B1B5B5"/>
			<path d="m266.4 256.95c0.5 0.633 0.767 1.316 0.8 2.05 0.033 0.767-0.117 1.434-0.45 2-0.434 0.733-1.116 1.116-2.05 1.15-2.333 0.066-3.55-0.917-3.65-2.95-0.033-1 0.233-1.8 0.8-2.4 0.533-0.533 1.25-0.833 2.15-0.899 0.97-0.07 1.77 0.28 2.4 1.05zm-1.95 4.85c1.467-0.033 2.3-0.866 2.5-2.5 0.066-0.767-0.167-1.467-0.7-2.1-0.566-0.667-1.3-0.983-2.2-0.95-0.733 0-1.333 0.233-1.8 0.7-0.533 0.5-0.8 1.2-0.8 2.1s0.3 1.617 0.9 2.15c0.57 0.47 1.27 0.67 2.1 0.6z" fill="#B1B5B5"/>
			<path d="m265.65 253.35l1 0.15c0.767 0.233 1.433 0.65 2 1.25 1.133 1.267 1.733 2.45 1.8 3.55 0.033 0.533 0 1.233-0.101 2.101l-0.5-0.15c0.301-1.066 0.301-2.083 0-3.05-0.233-0.8-0.666-1.533-1.3-2.2-0.77-0.77-1.73-1.32-2.9-1.65z" fill="#EBECEB"/>
		</g>
			<line stroke-width=".5" y2="236.85" x2="264.45" stroke="#454748" y1="256.65" x1="264.1" fill="none"/>
	</g>
	<g clip-rule="evenodd">
		<g fill-rule="evenodd">
			<polygon points="317.6 102.8 318.5 106.4 317.3 106.4 316.75 102.85" fill="#999E9E"/>
			<path d="m315.05 106.2l1-0.65c0.334-0.167 0.684-0.3 1.05-0.4l0.801 0.25-1.4 2.35-1.45-1.55z" fill="#B6BBBA"/>
			<path d="m313.15 115.85c-0.267-0.133-0.467-0.417-0.601-0.85l-0.5-1.7 2.05-0.65 0.551 3.25-0.75 1.5-0.75-1.55z" fill="#999E9E"/>
			<polygon points="312.95 108.3 314.65 107.3 315.05 112.1 312.25 112.15 312.25 110.4 312.5 109.35" fill="#B1B5B5"/>
			<polygon points="308.85 110.25 312.25 110.4 313 110.65 310.8 111.15" fill="#BFC4C3"/>
			<path d="m319 109.6c0.267-0.767 0.983-1.067 2.15-0.9 1.199 0.133 2.066 0.65 2.6 1.55 0.533 0.933 0.566 2.117 0.1 3.55-0.466 1.467-1.233 2.35-2.3 2.65-1 0.267-1.85 0.033-2.55-0.7-0.733-0.767-0.65-1.183 0.25-1.25 1.533-0.1 2.267-1.017 2.2-2.75-0.033-0.7-0.45-1.267-1.25-1.7l-1.2-0.45z" fill="#7C8182"/>
			<polygon points="324.25 103.95 325.25 104.15 323.4 108.05 321.65 106.3" fill="#BFC4C3"/>
			<polygon points="311.3 106.45 312.95 106.75 313.85 108.3 312.95 108.3 310.6 106.4" fill="#747879"/>
			<polygon points="311.75 117.45 310.75 117.05 313.15 115.85 314.35 116.25 313.35 117.6" fill="#B1B5B5"/>
			<polygon points="318.1 121.65 317 121.3 317.65 118.15 319.15 118.55" fill="#999E9E"/>
			<polygon points="323.75 117.3 325.25 120.05 323.85 119.45 322.65 117.9" fill="#7C8182"/>
			<polygon points="329.65 110.25 325.25 111.25 323.8 109.95 328.9 109.9" fill="#EBECEB"/>
			<path d="m319.75 114.5c1.8 0.067 2.616-0.767 2.45-2.5-0.167-1.7-1.101-2.483-2.8-2.35-1.301 0.1-2 0.917-2.101 2.45-0.1 1.57 0.72 2.37 2.45 2.4zm5.5-10.35l2.05 2.35-1.75 1.9c0.467 0.767 0.767 1.467 0.9 2.1l3.2-0.25-0.051 3.55-3-0.3c-0.1 0.833-0.35 1.567-0.75 2.2l2.25 1.25-2.85 3.1-1.8-1.85c-0.533 0.333-1.167 0.583-1.9 0.75l0.3 2.65-3.75 0.05 0.2-2.65c-0.833-0.133-1.6-0.417-2.3-0.85l-1.6 2.2-2.65-2.9 2.15-1.35c-0.4-0.667-0.684-1.383-0.851-2.15l-3.35 0.15 0.05-3.6 3.25 0.15c0.134-0.767 0.417-1.55 0.85-2.35l-2.55-1.85 2.351-2.65 2.05 2.5c0.666-0.466 1.399-0.767 2.2-0.9l-0.301-2.6 3.9 0.2-0.15 2.55c0.634 0.133 1.25 0.367 1.851 0.7l2.05-2.1z" fill="#D4D9D7"/>
			<polygon points="309.75 110.5 309.7 114.1 308.8 113.7 308.85 110.25" fill="#999E9E"/>
			<polygon points="310.75 117.05 311.75 117.45 314.4 120.35 313 119.65" fill="#7C8182"/>
			<path d="m318 106v0.4c-0.5 0.233-1.017 0.517-1.55 0.85-1.101 0.733-1.75 1.467-1.95 2.2-0.833 2.9-0.417 5.133 1.25 6.7 0.967 0.9 2.167 1.483 3.6 1.75 0.7 0.133 1.301 0.184 1.801 0.15l-0.051 0.45c-0.5 0.033-1.116 0-1.85-0.1-1.4-0.233-2.566-0.75-3.5-1.55-1.1-0.9-1.767-2.117-2-3.65-0.2-1.4-0.05-2.767 0.45-4.1 0.434-1.033 1.2-1.85 2.3-2.45 0.53-0.33 1.03-0.55 1.5-0.65z" fill="#B1B5B5"/>
			<path d="m317.35 109.8c0.534-0.533 1.25-0.833 2.15-0.9 0.967-0.066 1.767 0.283 2.4 1.05 0.5 0.633 0.767 1.316 0.8 2.05 0.033 0.767-0.117 1.433-0.45 2-0.434 0.733-1.116 1.117-2.05 1.15-2.334 0.067-3.55-0.917-3.65-2.95-0.03-1 0.23-1.8 0.8-2.4zm4.4 0.4c-0.566-0.667-1.3-0.983-2.2-0.95-0.733 0-1.333 0.233-1.8 0.7-0.533 0.5-0.8 1.2-0.8 2.1s0.3 1.617 0.899 2.15c0.567 0.466 1.267 0.667 2.101 0.6 1.467-0.033 2.3-0.867 2.5-2.5 0.07-0.77-0.17-1.47-0.7-2.1z" fill="#B1B5B5"/>
			<path d="m324.05 108c-0.767-0.767-1.733-1.317-2.899-1.65l1 0.15c0.767 0.233 1.433 0.65 2 1.25 1.133 1.267 1.733 2.45 1.8 3.55 0.033 0.534 0 1.233-0.101 2.1l-0.5-0.15c0.301-1.067 0.301-2.083 0-3.05-0.23-0.8-0.67-1.53-1.3-2.2z" fill="#EBECEB"/>
		</g>
			<line stroke-width=".5" y2="89.85" x2="319.95" stroke="#454748" y1="109.65" x1="319.6" fill="none"/>
	</g>
	<g clip-rule="evenodd">
		<g fill-rule="evenodd">
			<polygon points="89.1 236.3 90 239.9 88.8 239.9 88.25 236.35" fill="#999E9E"/>
			<polygon points="86.55 239.7 87.55 239.05 88.6 238.65 89.4 238.9 88 241.25" fill="#B6BBBA"/>
			<path d="m85.6 246.15l0.55 3.25-0.75 1.5-0.75-1.551c-0.267-0.133-0.467-0.416-0.6-0.85l-0.5-1.7 2.05-0.65z" fill="#999E9E"/>
			<path d="m84.45 241.8l1.7-1 0.4 4.8-2.8 0.051v-1.75c0.067-0.467 0.15-0.817 0.25-1.051l0.45-1.05z" fill="#B1B5B5"/>
			<polygon points="82.3 244.65 80.35 243.75 83.75 243.9 84.5 244.15" fill="#BFC4C3"/>
			<path d="m90.5 243.1c0.267-0.767 0.983-1.066 2.15-0.899 1.2 0.133 2.067 0.649 2.6 1.55 0.533 0.934 0.567 2.116 0.1 3.55-0.467 1.467-1.233 2.351-2.3 2.65-1 0.267-1.85 0.033-2.55-0.7-0.733-0.767-0.65-1.184 0.25-1.25 1.533-0.1 2.267-1.017 2.2-2.75-0.034-0.7-0.45-1.267-1.25-1.7l-1.2-0.45z" fill="#7C8182"/>
			<polygon points="96.75 237.65 94.9 241.55 93.15 239.8 95.75 237.45" fill="#BFC4C3"/>
			<polygon points="82.8 239.95 84.45 240.25 85.35 241.8 84.45 241.8 82.1 239.9" fill="#747879"/>
			<polygon points="83.25 250.95 82.25 250.55 84.65 249.35 85.85 249.75 84.85 251.1" fill="#B1B5B5"/>
			<polygon points="89.6 255.15 88.5 254.8 89.15 251.65 90.65 252.05" fill="#999E9E"/>
			<polygon points="96.75 253.55 95.35 252.95 94.15 251.4 95.25 250.8" fill="#7C8182"/>
			<polygon points="101.15 243.75 96.75 244.75 95.3 243.45 100.4 243.4" fill="#EBECEB"/>
			<path d="m81.25 244l3.25 0.15c0.133-0.767 0.417-1.551 0.85-2.351l-2.55-1.85 2.35-2.65 2.05 2.5c0.667-0.467 1.4-0.767 2.2-0.899l-0.3-2.601 3.9 0.2-0.15 2.55c0.633 0.134 1.25 0.367 1.85 0.7l2.05-2.1 2.05 2.35-1.75 1.9c0.467 0.767 0.767 1.466 0.9 2.1l3.2-0.25-0.05 3.55-3-0.3c-0.1 0.833-0.35 1.566-0.75 2.2l2.25 1.25-2.85 3.1-1.8-1.85c-0.534 0.333-1.167 0.583-1.9 0.75l0.3 2.649-3.75 0.051 0.2-2.65c-0.833-0.134-1.6-0.417-2.3-0.85l-1.6 2.199-2.65-2.899 2.15-1.351c-0.4-0.666-0.683-1.383-0.85-2.149l-3.35 0.15 0.05-3.6zm9.65-0.85c-1.3 0.1-2 0.916-2.1 2.449-0.1 1.567 0.717 2.367 2.45 2.4 1.8 0.066 2.617-0.767 2.45-2.5-0.167-1.7-1.1-2.48-2.8-2.35z" fill="#D4D9D7"/>
			<polygon points="81.25 244 81.2 247.6 80.3 247.2 80.35 243.75" fill="#999E9E"/>
			<polygon points="82.25 250.55 83.25 250.95 85.9 253.85 84.5 253.15" fill="#7C8182"/>
			<path d="m89.5 239.5v0.4l-1.55 0.85c-1.1 0.733-1.75 1.467-1.95 2.2-0.833 2.899-0.417 5.133 1.25 6.7 0.967 0.899 2.167 1.483 3.6 1.75 0.7 0.133 1.3 0.183 1.8 0.149l-0.05 0.45c-0.5 0.033-1.117 0-1.85-0.1-1.4-0.233-2.567-0.75-3.5-1.551-1.1-0.899-1.767-2.116-2-3.649-0.2-1.4-0.05-2.767 0.45-4.101 0.433-1.033 1.2-1.85 2.3-2.449l1.5-0.65z" fill="#B1B5B5"/>
			<path d="m88.05 245.7c-0.033-1 0.233-1.8 0.8-2.4 0.533-0.533 1.25-0.833 2.15-0.899 0.967-0.067 1.767 0.283 2.4 1.05 0.5 0.633 0.767 1.316 0.8 2.05 0.033 0.767-0.117 1.434-0.45 2-0.433 0.733-1.117 1.116-2.05 1.15-2.333 0.07-3.55-0.92-3.65-2.95zm5.9 0.1c0.066-0.767-0.167-1.467-0.7-2.1-0.567-0.667-1.3-0.983-2.2-0.95-0.733 0-1.333 0.233-1.8 0.7-0.533 0.5-0.8 1.2-0.8 2.1s0.3 1.617 0.9 2.15c0.566 0.467 1.267 0.666 2.1 0.6 1.467-0.03 2.3-0.87 2.5-2.5z" fill="#B1B5B5"/>
			<path d="m92.65 239.85l1 0.15c0.767 0.233 1.434 0.65 2 1.25 1.133 1.267 1.733 2.45 1.8 3.55 0.033 0.533 0 1.233-0.1 2.101l-0.5-0.15c0.3-1.066 0.3-2.083 0-3.05-0.233-0.8-0.667-1.533-1.3-2.2-0.767-0.77-1.733-1.32-2.9-1.65z" fill="#EBECEB"/>
		</g>
			<line stroke-width=".5" y2="223.35" x2="91.45" stroke="#454748" y1="243.15" x1="91.1" fill="none"/>
	</g>
	<g clip-rule="evenodd">
		<g fill-rule="evenodd">
			<polygon points="24.55 128.45 25.45 132 24.3 132 23.75 128.5" fill="#999E9E"/>
			<polygon points="22 131.8 23.05 131.15 24.05 130.75 24.85 131.05 23.45 133.4" fill="#B6BBBA"/>
			<path d="m20.1 141.5c-0.267-0.167-0.467-0.467-0.6-0.9l-0.5-1.7 2.05-0.65 0.55 3.3-0.75 1.45-0.75-1.5z" fill="#999E9E"/>
			<polygon points="19.95 133.9 21.6 132.95 22 137.75 19.2 137.8 19.2 136.05 19.45 134.95" fill="#B1B5B5"/>
			<polygon points="15.8 135.9 19.2 136.05 19.95 136.3 17.75 136.75" fill="#BFC4C3"/>
			<path d="m25.95 135.25c0.267-0.767 0.983-1.083 2.15-0.95 1.2 0.167 2.066 0.7 2.6 1.6 0.566 0.9 0.617 2.083 0.15 3.55-0.5 1.466-1.283 2.333-2.35 2.6-1 0.3-1.85 0.067-2.55-0.7s-0.6-1.184 0.3-1.25c1.5-0.1 2.217-1.017 2.15-2.75-0.033-0.7-0.45-1.267-1.25-1.7l-1.2-0.4z" fill="#7C8182"/>
			<polygon points="32.2 129.8 30.35 133.65 28.6 131.9 31.25 129.55" fill="#BFC4C3"/>
			<polygon points="18.25 132.05 19.95 132.35 20.8 133.95 19.95 133.9 17.55 132" fill="#747879"/>
			<polygon points="18.75 143.05 17.7 142.65 20.1 141.5 21.3 141.85 20.3 143.2" fill="#B1B5B5"/>
			<polygon points="25.05 147.3 23.95 146.9 24.6 143.75 26.15 144.2" fill="#999E9E"/>
			<polygon points="32.2 145.65 30.8 145.05 29.6 143.55 30.7 142.95" fill="#7C8182"/>
			<polygon points="36.6 135.9 32.2 136.85 30.75 135.55 35.85 135.5" fill="#EBECEB"/>
			<path d="m26.7 140.1c1.8 0.066 2.617-0.75 2.45-2.45-0.167-1.733-1.1-2.517-2.8-2.35-1.3 0.067-1.983 0.867-2.05 2.4-0.1 1.57 0.7 2.37 2.4 2.4zm-6.7-0.55l-3.35 0.2 0.05-3.65 3.25 0.2c0.133-0.833 0.417-1.617 0.85-2.35l-2.55-1.9 2.4-2.65 2 2.5c0.7-0.433 1.434-0.717 2.2-0.85l-0.3-2.6 3.9 0.15-0.1 2.55c0.867 0.267 1.483 0.5 1.85 0.7l2-2.05 2.1 2.35-1.8 1.85c0.4 0.6 0.717 1.317 0.95 2.15l3.15-0.25-0.05 3.5-3-0.3c-0.1 0.8-0.35 1.55-0.75 2.25l2.25 1.2-2.85 3.1-1.75-1.85c-0.6 0.367-1.25 0.617-1.95 0.75l0.3 2.7-3.75 0.05 0.2-2.7c-0.867-0.167-1.633-0.45-2.3-0.85l-1.6 2.25-2.6-2.95 2.1-1.35c-0.333-0.53-0.617-1.25-0.85-2.15z" fill="#D4D9D7"/>
			<polygon points="16.7 136.1 16.65 139.75 15.75 139.3 15.8 135.9" fill="#999E9E"/>
			<polygon points="17.7 142.65 18.75 143.05 21.35 146 20 145.3" fill="#7C8182"/>
			<path d="m25 131.65v0.35l-1.6 0.85c-1.1 0.733-1.75 1.467-1.95 2.2-0.833 2.9-0.417 5.133 1.25 6.7 0.966 0.9 2.167 1.483 3.6 1.75 0.733 0.133 1.35 0.183 1.85 0.15l-0.05 0.5c-0.5 0.033-1.117-0.017-1.85-0.15-1.4-0.233-2.583-0.75-3.55-1.55-1.1-0.9-1.767-2.117-2-3.65-0.2-1.367-0.034-2.716 0.5-4.05 0.4-1.033 1.15-1.85 2.25-2.45l1.55-0.65z" fill="#B1B5B5"/>
			<path d="m24.3 135.45c0.534-0.567 1.25-0.883 2.15-0.95 0.966-0.067 1.767 0.283 2.4 1.05 0.5 0.633 0.767 1.317 0.8 2.05 0.033 0.767-0.117 1.433-0.45 2-0.434 0.733-1.117 1.117-2.05 1.15-2.333 0.067-3.55-0.9-3.65-2.9-0.033-1.03 0.233-1.83 0.8-2.4zm4.4 0.4c-0.567-0.7-1.3-1.033-2.2-1-0.733 0.033-1.333 0.267-1.8 0.7-0.534 0.5-0.8 1.2-0.8 2.1s0.3 1.617 0.9 2.15c0.567 0.467 1.267 0.684 2.1 0.65 1.434-0.034 2.267-0.867 2.5-2.5 0.067-0.77-0.167-1.47-0.7-2.1z" fill="#B1B5B5"/>
			<path d="m28.15 131.95l1 0.15c0.767 0.233 1.434 0.667 2 1.3 1.1 1.167 1.684 2.333 1.75 3.5 0.033 0.567 0 1.283-0.1 2.15l-0.5-0.2c0.3-1.033 0.3-2.05 0-3.05-0.533-1.93-1.917-3.22-4.15-3.85z" fill="#EBECEB"/>
		</g>
			<line stroke-width=".5" y2="115.45" x2="26.9" stroke="#454748" y1="135.3" x1="26.55" fill="none"/>
	</g>
	<g clip-rule="evenodd">
		<g fill-rule="evenodd">
			<polygon points="430.75 196.85 431.6 196.8 432.5 200.4 431.3 200.4" fill="#999E9E"/>
			<path d="m429.05 200.2l1-0.65c0.334-0.167 0.684-0.3 1.05-0.4l0.801 0.25-1.4 2.35-1.45-1.55z" fill="#B6BBBA"/>
			<path d="m427.15 209.85c-0.267-0.133-0.467-0.417-0.601-0.85l-0.5-1.7 2.05-0.65 0.551 3.25-0.75 1.5-0.75-1.55z" fill="#999E9E"/>
			<polygon points="426.95 202.3 428.65 201.3 429.05 206.1 426.25 206.15 426.25 204.4 426.5 203.35" fill="#B1B5B5"/>
			<polygon points="422.85 204.25 426.25 204.4 427 204.65 424.8 205.15" fill="#BFC4C3"/>
			<path d="m437.75 204.25c0.533 0.933 0.566 2.117 0.1 3.55-0.466 1.467-1.233 2.35-2.3 2.65-1 0.267-1.85 0.033-2.55-0.7-0.733-0.767-0.65-1.183 0.25-1.25 1.533-0.1 2.267-1.017 2.2-2.75-0.033-0.7-0.45-1.267-1.25-1.7l-1.2-0.45c0.267-0.767 0.983-1.067 2.15-0.9 1.2 0.13 2.07 0.65 2.6 1.55z" fill="#7C8182"/>
			<polygon points="439.25 198.15 437.4 202.05 435.65 200.3 438.25 197.95" fill="#BFC4C3"/>
			<polygon points="425.3 200.45 426.95 200.75 427.85 202.3 426.95 202.3 424.6 200.4" fill="#747879"/>
			<polygon points="425.75 211.45 424.75 211.05 427.15 209.85 428.35 210.25 427.35 211.6" fill="#B1B5B5"/>
			<polygon points="432.1 215.65 431 215.3 431.65 212.15 433.15 212.55" fill="#999E9E"/>
			<polygon points="439.25 214.05 437.85 213.45 436.65 211.9 437.75 211.3" fill="#7C8182"/>
			<polygon points="443.65 204.25 439.25 205.25 437.8 203.95 442.9 203.9" fill="#EBECEB"/>
			<path d="m433.4 203.65c-1.301 0.1-2 0.917-2.101 2.45-0.1 1.566 0.717 2.367 2.45 2.4 1.8 0.067 2.616-0.767 2.45-2.5-0.17-1.7-1.1-2.48-2.8-2.35zm-1.8-6.85l3.9 0.2-0.15 2.55c0.634 0.133 1.25 0.367 1.851 0.7l2.05-2.1 2.05 2.35-1.75 1.9c0.467 0.767 0.767 1.467 0.9 2.1l3.2-0.25-0.051 3.55-3-0.3c-0.1 0.833-0.35 1.567-0.75 2.2l2.25 1.25-2.85 3.1-1.8-1.85c-0.533 0.333-1.167 0.583-1.9 0.75l0.3 2.65-3.75 0.05 0.2-2.65c-0.833-0.133-1.6-0.417-2.3-0.85l-1.6 2.2-2.65-2.9 2.15-1.35c-0.4-0.667-0.684-1.383-0.851-2.15l-3.35 0.15 0.05-3.6 3.25 0.15c0.134-0.767 0.417-1.55 0.85-2.35l-2.55-1.85 2.351-2.65 2.05 2.5c0.666-0.466 1.399-0.767 2.2-0.9l-0.3-2.6z" fill="#D4D9D7"/>
			<polygon points="423.75 204.5 423.7 208.1 422.8 207.7 422.85 204.25" fill="#999E9E"/>
			<polygon points="424.75 211.05 425.75 211.45 428.4 214.35 427 213.65" fill="#7C8182"/>
			<path d="m432 200v0.4c-0.5 0.233-1.017 0.517-1.55 0.85-1.101 0.733-1.75 1.467-1.95 2.2-0.833 2.9-0.417 5.133 1.25 6.7 0.967 0.9 2.167 1.483 3.6 1.75 0.7 0.133 1.301 0.184 1.801 0.15l-0.051 0.45c-0.5 0.033-1.116 0-1.85-0.1-1.4-0.233-2.566-0.75-3.5-1.55-1.1-0.9-1.767-2.117-2-3.65-0.2-1.4-0.05-2.767 0.45-4.1 0.434-1.033 1.2-1.85 2.3-2.45 0.53-0.33 1.03-0.55 1.5-0.65z" fill="#B1B5B5"/>
			<path d="m436.7 206c0.033 0.767-0.117 1.433-0.45 2-0.434 0.733-1.116 1.117-2.05 1.15-2.334 0.067-3.55-0.917-3.65-2.95-0.033-1 0.233-1.8 0.8-2.4 0.534-0.533 1.25-0.833 2.15-0.9 0.967-0.066 1.767 0.283 2.4 1.05 0.5 0.63 0.77 1.32 0.8 2.05zm-0.25 0.3c0.066-0.767-0.167-1.466-0.7-2.1-0.566-0.667-1.3-0.983-2.2-0.95-0.733 0-1.333 0.233-1.8 0.7-0.533 0.5-0.8 1.2-0.8 2.1s0.3 1.617 0.899 2.15c0.567 0.466 1.267 0.667 2.101 0.6 1.47-0.03 2.3-0.87 2.5-2.5z" fill="#B1B5B5"/>
			<path d="m435.15 200.35l1 0.15c0.767 0.233 1.433 0.65 2 1.25 1.133 1.267 1.733 2.45 1.8 3.55 0.033 0.534 0 1.233-0.101 2.1l-0.5-0.15c0.301-1.067 0.301-2.083 0-3.05-0.233-0.8-0.666-1.534-1.3-2.2-0.77-0.77-1.73-1.32-2.9-1.65z" fill="#EBECEB"/>
		</g>
			<line stroke-width=".5" y2="188.85" x2="433.95" stroke="#454748" y1="203.65" x1="433.6" fill="none"/>
	</g>
</svg>
